# xmcd CD database file
#
# Track frame offsets:
#	300
#	14494
#	29434
#	39283
#	57295
#	74225
#	91833
#	105476
#	122770
#	137389
#	151849
#	164801
#	174117
#	185759
#	210954
#
# Disc length: 3628 seconds
#
# Revision: 3
# Processed by: cddbd v1.5.2PL0 Copyright (c) Steve Scherf et al.
# Submitted via: CDex 1.51
#
DISCID=c70e280f
DTITLE=Various Artist - Broken Bridges (Soundtrack)
DYEAR=2006
DGENRE=Country
TTITLE0=Toby Keith and Lindsay Haun - Broken Bridges
TTITLE1=Fred Eaglesmith - Thinkin' 'Bout You
TTITLE2=Toby Keith - Crash Here Tonight
TTITLE3=Lindsay Haun - Broken
TTITLE4=Matraca Berg - Along For The Ride
TTITLE5=Toby Keith, Willie Nelson and Bebe Winans - Uncloudy Day
TTITLE6=Scotty Emerick - What's Up With That
TTITLE7=Flynnville Train - High On The Mountain
TTITLE8=Sonya Isaacs - The Battlefield
TTITLE9=Toby Keith - Can't Go Back
TTITLE10=Poor Richard's Hound - The Waiting Game
TTITLE11=Toby Keith - Big Bull Rider
TTITLE12=Toby Keith - Zig Zag Stop
TTITLE13=Toby Keith - Jacky Don Tucker (Play By The Rules Miss All The Fun)
TTITLE14=Data Track
EXTD=YEAR: 2006
EXTT0=
EXTT1=
EXTT2=
EXTT3=
EXTT4=
EXTT5=
EXTT6=
EXTT7=
EXTT8=
EXTT9=
EXTT10=
EXTT11=
EXTT12=
EXTT13=
EXTT14=
PLAYORDER=
